<svg width="141" height="90" viewBox="0 0 141 90" fill="none" xmlns="http://www.w3.org/2000/svg">
  <g clip-path="url(#clip0)">
    <path d="M19.088 20.406h2.093c0 .873.666 1.455 1.903 1.455.952 0 1.523-.388 1.523-1.067 0-.776-.857-.873-1.903-.97-1.523-.194-3.521-.388-3.521-2.618 0-1.745 1.427-2.812 3.71-2.812 2.285 0 3.807 1.067 3.807 2.812h-2.188c0-.776-.667-1.26-1.618-1.26-.856 0-1.427.388-1.427.97 0 .775 1.046.872 2.188.969 1.523.194 3.33.582 3.33 2.521 0 1.843-1.427 2.91-3.9 2.91-2.475.193-3.997-.97-3.997-2.91zM29.174 20.503v-3.975h-1.142v-1.746h1.237l.476-2.715h1.903v2.715h1.903v1.746h-1.903v3.878c0 .68.38 1.164 1.142 1.164.19 0 .57-.097.856-.097v1.746c-.476.194-1.142.29-1.617.29-1.713 0-2.855-1.26-2.855-3.006zM34.788 20.988c0-1.552 1.332-2.521 3.901-2.91l1.808-.193v-.388c0-.776-.57-1.358-1.522-1.358-.857 0-1.428.485-1.428 1.358H35.17c0-1.843 1.522-3.006 3.806-3.006 2.378 0 3.9 1.26 3.9 3.103v5.527h-2.378v-1.066h-.19c-.476.872-1.427 1.26-2.664 1.26-1.713.097-2.855-.776-2.855-2.327zm5.614-.97v-.582l-1.713.194c-1.142.194-1.617.582-1.617 1.164s.475 1.066 1.332 1.066c1.237 0 1.998-.872 1.998-1.842zM44.493 26.71v-1.94c.38.194.856.29 1.237.29 1.047 0 1.427-.872 1.808-1.745l-3.901-8.533h2.569l2.188 5.43h.19l1.808-5.43h2.474l-3.235 8.727C48.87 25.642 48.014 27 46.206 27c-.571 0-1.237-.097-1.713-.29zM57.815 20.988c0-1.552 1.332-2.521 3.9-2.91l1.808-.193v-.388c0-.776-.57-1.358-1.522-1.358-.856 0-1.427.485-1.427 1.358h-2.379c0-1.843 1.523-3.006 3.806-3.006 2.379 0 3.901 1.26 3.901 3.103v5.527h-2.474v-1.066h-.19c-.476.872-1.427 1.26-2.664 1.26-1.618.097-2.76-.776-2.76-2.327zm5.613-.97v-.582l-1.712.194c-1.142.194-1.618.582-1.618 1.164s.476 1.066 1.332 1.066c1.237 0 1.998-.872 1.998-1.842zM68.28 20.503v-3.975H67.14v-1.746h1.237l.475-2.715h1.903v2.715h1.903v1.746h-1.903v3.878c0 .68.381 1.164 1.142 1.164.19 0 .571-.097.857-.097v1.746c-.476.194-1.142.29-1.618.29-1.808 0-2.855-1.26-2.855-3.006zM78.557 11h2.379v4.945h.19c.666-.97 1.427-1.357 2.379-1.357 1.903 0 3.14 1.455 3.14 3.49v5.237h-2.379v-4.848c0-1.067-.57-1.746-1.522-1.746-.952 0-1.713.776-1.713 1.843v4.751h-2.379V11h-.095zM88.263 18.951c0-2.715 1.808-4.46 4.567-4.46 2.76 0 4.567 1.745 4.567 4.46 0 2.716-1.808 4.461-4.567 4.461-2.76.097-4.567-1.745-4.567-4.46zm6.755 0c0-1.357-.951-2.424-2.188-2.424-1.332 0-2.189.97-2.189 2.424 0 1.455.952 2.425 2.189 2.425s2.188-.97 2.188-2.425zM99.11 14.782h2.378v1.26h.19c.476-.873 1.333-1.551 2.379-1.551 1.047 0 2.094.678 2.569 1.551h.191c.475-.97 1.427-1.551 2.569-1.551 1.808 0 3.14 1.454 3.14 3.49v5.237h-2.474V18.37c0-1.067-.666-1.746-1.523-1.843-.951 0-1.617.776-1.617 1.843v4.848h-2.379V18.37c0-1.067-.571-1.843-1.522-1.843-.952 0-1.523.679-1.523 1.843v4.848h-2.379v-8.436zM114.049 18.951c0-2.618 1.903-4.46 4.567-4.46s4.472 1.842 4.472 4.46v.776h-6.47c.19 1.164 1.047 1.94 2.188 1.94.952 0 1.618-.485 1.999-1.164l1.998.485c-.476 1.551-2.094 2.424-4.092 2.424-2.759.097-4.662-1.745-4.662-4.46zm6.565-.775c-.19-1.067-.951-1.843-2.093-1.843-1.047 0-1.808.776-1.998 1.843h4.091zM.961 36.703l8.777-1.61c.572-.094 1.145.285 1.24.852l2.48 13.344.477-.095 7.346-15.71c.191-.283.477-.567.763-.567l10.208-1.893c.859-.189 1.526.758 1.145 1.515L24.334 49.95c-.19.379-.096.946.19 1.23L39.79 65.944c.667.568.286 1.703-.573 1.798l-10.303 1.893c-.381.094-.763-.095-.954-.284L15.271 56.008l-.477.094 2.671 14.668c.096.568-.286 1.136-.858 1.23L7.83 73.61c-.573.094-1.145-.284-1.24-.852L.103 38.028c-.096-.663.286-1.136.858-1.325zM45.322 34.337l8.967-.19c.573 0 1.05.474 1.145 1.041l.954 35.299c0 .567-.477 1.04-1.05 1.135l-8.967.19c-.572 0-1.05-.474-1.145-1.041l-.953-35.299c0-.568.476-1.135 1.049-1.135zM63.066 37.838c-.095-.568.382-1.136.954-1.136l14.215-1.514c12.879-1.325 22.323 5.205 23.468 16.372 1.145 11.166-6.582 19.494-19.461 20.914l-14.215 1.514c-.572.094-1.145-.379-1.145-.947l-3.816-35.203zm18.317 26.308c6.296-.663 10.017-5.205 9.35-11.45-.669-6.341-5.248-9.937-11.544-9.275l-3.53.379c-.572.094-1.05.568-.954 1.135l2.004 18.548c.095.568.572 1.041 1.144.947l3.53-.284zM106.473 59.036l8.3-.568c.477 0 .954.284 1.144.852.668 2.555 3.339 4.069 7.346 3.785 3.53-.284 5.819-1.703 5.629-4.07-.191-2.744-3.339-3.122-7.251-3.311-6.582-.379-16.408-.474-17.076-10.032-.573-7.38 5.533-12.68 15.455-13.438 9.444-.662 16.313 3.597 17.553 10.694.095.663-.382 1.23-.954 1.23l-7.918.568c-.573 0-1.05-.284-1.145-.852-.668-2.65-3.053-4.069-6.487-3.785-3.53.284-5.533 1.893-5.342 3.975.19 2.839 4.006 3.028 8.395 3.312 6.487.473 15.264 1.23 15.931 10.22.573 7.382-6.01 12.681-16.504 13.533-9.73.757-16.79-3.596-18.03-10.694-.096-.852.381-1.42.954-1.42z" fill="#FFF031"/>
    <path d="M136.088 90h-130V78.969h4.38v6.559h121.239V74h4.381v16zM10.469 29H6.088V0h130v28.244h-4.381V4.345H10.469V29z" fill="#FF8FE9"/>
  </g>
  <defs>
    <clipPath id="clip0">
      <path fill="#fff" d="M.088 0h140v90h-140z"/>
    </clipPath>
  </defs>
</svg>
